<svg enable-background="new 0 0 100 100" viewBox="0 0 100 100" xmlns="http://www.w3.org/2000/svg"><path d="m41.743 56.501-2.152 14.083h8.078v-14.083z" fill="#6a4b35"/><path d="m46.356 56.501h-4.49l-2.275 14.083h6.765z" fill="#59402d"/><path d="m56.884 47.357c.2-.743-1.959-5.291-4.535-9.908l4.156.1s-7.242-21.116-10.16-21.116c-2.92 0-15.59 20.499-15.59 20.499l6.641.159c-3.543 5.268-7.032 10.606-7.032 10.606s3.249.161 7.468.299c-3.688 5.47-7.468 11.254-7.468 11.254s26.079 1.302 26.52-.34c.212-.789-2.24-5.877-5.028-10.782 2.879-.097 4.907-.324 5.028-.771z" fill="#4db061"/><path d="m46.356 59.731v-43.262c-3.227.771-15.4 20.462-15.4 20.462l6.64.159c-3.542 5.268-7.031 10.606-7.031 10.606s3.249.161 7.469.299c-3.687 5.47-7.469 11.254-7.469 11.254s8.434.421 15.791.482z" fill="#1fa551"/><path d="m57.034 59.209-2.152 14.085h8.078v-14.085z" fill="#6a4b35"/><path d="m61.647 59.209h-4.49l-2.275 14.085h6.765z" fill="#59402d"/><path d="m72.175 50.066c.199-.743-1.96-5.291-4.536-9.909l4.156.1s-7.242-21.115-10.161-21.115c-2.92 0-15.589 20.498-15.589 20.498l6.64.159c-3.543 5.269-7.031 10.606-7.031 10.606s3.249.162 7.469.3c-3.688 5.469-7.469 11.254-7.469 11.254s26.079 1.301 26.521-.34c.212-.79-2.241-5.877-5.028-10.782 2.879-.096 4.907-.324 5.028-.771z" fill="#4db061"/><path d="m61.647 62.441v-43.262c-3.227.771-15.4 20.461-15.4 20.461l6.64.159c-3.543 5.269-7.032 10.606-7.032 10.606s3.249.162 7.469.3c-3.688 5.469-7.469 11.254-7.469 11.254s8.435.419 15.792.482z" fill="#1fa551"/><path d="m72.24 68.962-2.153 14.085h8.079v-14.085z" fill="#6a4b35"/><path d="m76.852 68.962h-4.49l-2.275 14.085h6.765z" fill="#59402d"/><path d="m87.38 59.82c.2-.743-1.959-5.291-4.535-9.908l4.156.1s-7.241-21.116-10.16-21.116c-2.92 0-15.59 20.498-15.59 20.498l6.641.16c-3.543 5.268-7.032 10.605-7.032 10.605s3.249.162 7.468.3c-3.688 5.469-7.468 11.254-7.468 11.254s26.079 1.302 26.52-.34c.212-.789-2.24-5.877-5.027-10.782 2.878-.097 4.906-.324 5.027-.771z" fill="#4db061"/><path d="m76.852 72.194v-43.262c-3.228.771-15.4 20.461-15.4 20.461l6.64.16c-3.543 5.268-7.032 10.605-7.032 10.605s3.249.162 7.469.3c-3.688 5.469-7.469 11.254-7.469 11.254s8.435.421 15.792.482z" fill="#1fa551"/><path d="m73.98 52.214-21.214-21.76-.182-.179-.182.179-21.214 21.76c-1.069 3.94 4.069 2.13 4.069 2.13l17.327-18.597 17.328 18.597s5.137 1.81 4.068-2.13z" fill="#6a4b35"/><path d="m52.811 33.226-7.173 7.479-12.782 13.326v29.537h19.955 19.955v-29.537z" fill="#e47908"/><g fill="#6a4b35"><path d="m58.73 40.149-5.932-6.033-5.971 6.033z"/><path d="m67.565 49.622-3.834-4.104h-21.872l-3.935 4.104z"/><path d="m63.264 44.971-4.001-4.104-13.169.122-3.636 3.982z"/><path d="m33.593 64.446h38.41v4.262h-38.41z"/><path d="m33.493 73.971h38.41v3.967h-38.41z"/><path d="m33.493 69.216h38.41v4.221h-38.41z"/><path d="m33.593 55.008h38.41v4.261h-38.41z"/><path d="m72.003 54.344-4.088-4.261h-30.407l-3.915 4.261z"/><path d="m33.493 59.777h38.41v4.221h-38.41z"/><path d="m33.493 78.451v3.968h19.205 19.205v-3.968z"/></g><path d="m60.14 40.867h-14.762" fill="#e47908"/><path d="m46.827 68.708h10.836v14.859h-10.836z" fill="#e47908"/><path d="m39.458 54.344h25.607v10.103h-25.607z" fill="#e47908"/><path d="m51.757 54.344h1.008v10.103h-1.008z" fill="#6a4b35"/><path d="m23.988 68.962-2.153 14.085h8.079v-14.085z" fill="#6a4b35"/><path d="m28.6 68.962h-4.49l-2.275 14.085h6.765z" fill="#59402d"/><path d="m39.128 59.82c.199-.743-1.96-5.291-4.536-9.908l4.156.1s-7.241-21.116-10.16-21.116c-2.921 0-15.589 20.498-15.589 20.498l6.64.16c-3.543 5.268-7.032 10.605-7.032 10.605s3.249.162 7.469.3c-3.688 5.469-7.469 11.254-7.469 11.254s26.079 1.302 26.521-.34c.212-.789-2.241-5.877-5.028-10.782 2.879-.097 4.907-.324 5.028-.771z" fill="#4db061"/><path d="m28.6 72.194v-43.262c-3.228.771-15.4 20.461-15.4 20.461l6.64.16c-3.543 5.268-7.031 10.605-7.031 10.605s3.249.162 7.468.3c-3.688 5.469-7.468 11.254-7.468 11.254s8.434.421 15.791.482z" fill="#1fa551"/></svg>